<?xml version="1.0" encoding="UTF-8" standalone="no"?>
<!DOCTYPE svg PUBLIC "-//W3C//DTD SVG 1.1//EN" "http://www.w3.org/Graphics/SVG/1.1/DTD/svg11.dtd">
<svg width="100%" height="100%" viewBox="0 0 128 128" version="1.1" xmlns="http://www.w3.org/2000/svg" xmlns:xlink="http://www.w3.org/1999/xlink" xml:space="preserve" xmlns:serif="http://www.serif.com/" style="fill-rule:evenodd;clip-rule:evenodd;">
    <g>
        <circle id="b" cx="64" cy="64" r="56" style="fill:white;"/>
        <circle id="b1" serif:id="b" cx="64" cy="64" r="56" style="fill:rgb(40,47,55);fill-opacity:0;stroke:rgb(209,215,224);stroke-opacity:0.5;stroke-width:2px;"/>
        <circle cx="64" cy="64" r="56" style="fill:white;"/>
        <g>
            <path id="e" d="M12,64.034C12,87.059 26.885,106.506 47.555,113.401C50.155,113.857 51.13,112.296 51.13,110.931C51.13,109.694 51.065,105.597 51.065,101.239C38,103.644 34.62,98.05 33.58,95.124C32.995,93.628 30.46,89.01 28.25,87.774C26.43,86.798 23.83,84.392 28.185,84.327C32.28,84.262 35.205,88.099 36.18,89.66C40.86,97.53 48.335,95.32 51.325,93.953C51.78,90.571 53.145,88.293 54.64,86.993C43.07,85.693 30.98,81.205 30.98,61.303C30.98,55.643 32.995,50.96 36.31,47.318C35.79,46.018 33.97,40.684 36.83,33.528C36.83,33.528 41.185,32.163 51.13,38.862C55.29,37.692 59.71,37.106 64.13,37.106C68.55,37.106 72.97,37.692 77.13,38.862C87.075,32.098 91.43,33.529 91.43,33.529C94.29,40.683 92.47,46.016 91.95,47.317C95.265,50.959 97.28,55.577 97.28,61.301C97.28,81.269 85.125,85.691 73.555,86.993C75.44,88.619 77.065,91.741 77.065,96.619C77.065,103.579 77,109.172 77,110.929C77,112.294 77.975,113.919 80.575,113.399C101.115,106.507 116,86.995 116,64.035C116,35.284 92.73,12 64,12C35.27,12 12,35.285 12,64.034Z" style="fill:url(#_Linear1);"/>
        </g>
    </g>
    <defs>
        <linearGradient id="_Linear1" x1="0" y1="0" x2="1" y2="0" gradientUnits="userSpaceOnUse" gradientTransform="matrix(6.21498e-15,101.498,-101.498,6.21498e-15,64,12)"><stop offset="0" style="stop-color:rgb(255,123,114);stop-opacity:1"/><stop offset="0.5" style="stop-color:rgb(220,189,251);stop-opacity:1"/><stop offset="1" style="stop-color:rgb(150,208,255);stop-opacity:1"/></linearGradient>
    </defs>
</svg>
